<svg width="512" height="512" viewBox="0 0 512 512" fill="none" xmlns="http://www.w3.org/2000/svg">
  <rect width="512" height="512" rx="100" fill="white"/>
  <!-- Modern Box Motif in Black -->
  <path d="M128 192L256 128L384 192V320L256 384L128 320V192Z" stroke="#0A0A0B" stroke-width="20" stroke-linejoin="round"/>
  <path d="M128 192L256 256L384 192" stroke="#0A0A0B" stroke-width="15" stroke-linejoin="round"/>
  <path d="M256 256V384" stroke="#0A0A0B" stroke-width="15" stroke-linejoin="round"/>
  <!-- Inner Stylized "S" in Black -->
  <path d="M210 220C210 220 225 205 256 205C287 205 302 220 302 235C302 250 287 265 256 265C225 265 210 280 210 295C210 310 225 325 256 325C287 325 302 310 302 310" stroke="#0A0A0B" stroke-width="20" stroke-linecap="round"/>
  <!-- Speed lines in Black with transparency -->
  <rect x="100" y="246" width="40" height="6" rx="3" fill="#0A0A0B" opacity="0.6"/>
  <rect x="110" y="266" width="30" height="6" rx="3" fill="#0A0A0B" opacity="0.4"/>
</svg>
