<svg width="512" height="512" viewBox="0 0 512 512" fill="none" xmlns="http://www.w3.org/2000/svg">
  <rect width="512" height="512" rx="100" fill="#0F172A"/>
  <path d="M128 192L256 128L384 192V320L256 384L128 320V192Z" stroke="#059669" stroke-width="24" stroke-linejoin="round"/>
  <path d="M128 192L256 256L384 192" stroke="#059669" stroke-width="16" stroke-linejoin="round"/>
  <path d="M256 256V384" stroke="#059669" stroke-width="16" stroke-linejoin="round"/>
  <path d="M210 210C210 210 225 195 256 195C287 195 302 210 302 225C302 240 287 255 256 255C225 255 210 270 210 285C210 300 225 315 256 315C287 315 302 300 302 300" stroke="white" stroke-width="16" stroke-linecap="round"/>
  <circle cx="100" cy="256" r="10" fill="#059669" opacity="0.6"/>
  <circle cx="80" cy="270" r="8" fill="#059669" opacity="0.4"/>
</svg>
